<svg width="89" height="91" viewBox="0 0 89 91" fill="none" xmlns="http://www.w3.org/2000/svg">
<path d="M75.0938 17.0625H61.1875V14.2188C61.1875 11.9561 60.3084 9.78617 58.7437 8.18625C57.1789 6.58633 55.0566 5.6875 52.8438 5.6875H36.1562C33.9433 5.6875 31.8211 6.58633 30.2563 8.18625C28.6916 9.78617 27.8125 11.9561 27.8125 14.2188V17.0625H13.9062C13.1686 17.0625 12.4612 17.3621 11.9396 17.8954C11.418 18.4287 11.125 19.152 11.125 19.9062C11.125 20.6605 11.418 21.3838 11.9396 21.9171C12.4612 22.4504 13.1686 22.75 13.9062 22.75H16.6875V73.9375C16.6875 75.4459 17.2735 76.8926 18.3167 77.9592C19.3599 79.0258 20.7747 79.625 22.25 79.625H66.75C68.2253 79.625 69.6401 79.0258 70.6833 77.9592C71.7265 76.8926 72.3125 75.4459 72.3125 73.9375V22.75H75.0938C75.8314 22.75 76.5388 22.4504 77.0604 21.9171C77.582 21.3838 77.875 20.6605 77.875 19.9062C77.875 19.152 77.582 18.4287 77.0604 17.8954C76.5388 17.3621 75.8314 17.0625 75.0938 17.0625ZM38.9375 59.7188C38.9375 60.473 38.6445 61.1963 38.1229 61.7296C37.6013 62.2629 36.8939 62.5625 36.1562 62.5625C35.4186 62.5625 34.7112 62.2629 34.1896 61.7296C33.668 61.1963 33.375 60.473 33.375 59.7188V36.9688C33.375 36.2145 33.668 35.4912 34.1896 34.9579C34.7112 34.4246 35.4186 34.125 36.1562 34.125C36.8939 34.125 37.6013 34.4246 38.1229 34.9579C38.6445 35.4912 38.9375 36.2145 38.9375 36.9688V59.7188ZM55.625 59.7188C55.625 60.473 55.332 61.1963 54.8104 61.7296C54.2888 62.2629 53.5814 62.5625 52.8438 62.5625C52.1061 62.5625 51.3987 62.2629 50.8771 61.7296C50.3555 61.1963 50.0625 60.473 50.0625 59.7188V36.9688C50.0625 36.2145 50.3555 35.4912 50.8771 34.9579C51.3987 34.4246 52.1061 34.125 52.8438 34.125C53.5814 34.125 54.2888 34.4246 54.8104 34.9579C55.332 35.4912 55.625 36.2145 55.625 36.9688V59.7188ZM55.625 17.0625H33.375V14.2188C33.375 13.4645 33.668 12.7412 34.1896 12.2079C34.7112 11.6746 35.4186 11.375 36.1562 11.375H52.8438C53.5814 11.375 54.2888 11.6746 54.8104 12.2079C55.332 12.7412 55.625 13.4645 55.625 14.2188V17.0625Z" fill="#FF0000"/>
</svg>
