<svg width="114" height="106" viewBox="0 0 114 106" fill="none" xmlns="http://www.w3.org/2000/svg">
<path d="M19 88.3334H38L87.875 41.9584C89.1226 40.7984 90.1122 39.4212 90.7874 37.9056C91.4625 36.39 91.81 34.7655 91.81 33.125C91.81 31.4845 91.4625 29.8601 90.7874 28.3445C90.1122 26.8288 89.1226 25.4517 87.875 24.2917C86.6274 23.1317 85.1464 22.2115 83.5164 21.5837C81.8863 20.9559 80.1393 20.6328 78.375 20.6328C76.6107 20.6328 74.8637 20.9559 73.2336 21.5837C71.6036 22.2115 70.1226 23.1317 68.875 24.2917L19 70.6667V88.3334Z" stroke="white" stroke-width="5" stroke-linecap="round" stroke-linejoin="round"/>
<path d="M64.125 28.7083L83.125 46.3749" stroke="white" stroke-width="5" stroke-linecap="round" stroke-linejoin="round"/>
</svg>
