<svg width="64" height="65" viewBox="0 0 64 65" fill="none" xmlns="http://www.w3.org/2000/svg">
<path d="M45.3334 5.4165H18.6667C11.3029 5.4165 5.33337 11.4793 5.33337 18.9582V46.0415C5.33337 53.5204 11.3029 59.5832 18.6667 59.5832H45.3334C52.6972 59.5832 58.6667 53.5204 58.6667 46.0415V18.9582C58.6667 11.4793 52.6972 5.4165 45.3334 5.4165Z" stroke="#1F2A44" stroke-width="2" stroke-linecap="round" stroke-linejoin="round"/>
<path d="M42.6667 30.7936C42.9958 33.0476 42.6167 35.3496 41.5834 37.3722C40.5501 39.3948 38.9151 41.0349 36.911 42.0594C34.907 43.0838 32.6359 43.4404 30.4208 43.0784C28.2057 42.7164 26.1594 41.6542 24.5729 40.043C22.9865 38.4317 21.9407 36.3535 21.5842 34.1038C21.2278 31.854 21.5789 29.5475 22.5876 27.5121C23.5963 25.4767 25.2112 23.8162 27.2027 22.7667C29.1941 21.7173 31.4607 21.3323 33.68 21.6665C35.9438 22.0074 38.0396 23.0788 39.6579 24.7223C41.2761 26.3659 42.331 28.4944 42.6667 30.7936Z" stroke="#1F2A44" stroke-width="2" stroke-linecap="round" stroke-linejoin="round"/>
<path d="M46.6666 17.604H46.6933" stroke="#1F2A44" stroke-width="2" stroke-linecap="round" stroke-linejoin="round"/>
</svg>
