<svg width="70" height="70" viewBox="0 0 70 70" fill="none" xmlns="http://www.w3.org/2000/svg">
<path fill-rule="evenodd" clip-rule="evenodd" d="M14.5097 18.2292H14.657C15.9533 18.2291 17.0355 18.2291 17.924 18.2898C18.8489 18.3529 19.7225 18.4889 20.5695 18.8397C22.5348 19.6538 24.0962 21.2152 24.9103 23.1806C25.1299 23.7106 25.2431 24.3092 25.3134 24.8242C25.388 25.3708 25.4336 25.9793 25.4629 26.6011C25.4902 27.1798 25.5046 27.8019 25.5122 28.4375H44.4876C44.4955 27.8019 44.5098 27.1798 44.5372 26.6011C44.5664 25.9793 44.6119 25.3708 44.6866 24.8242C44.7568 24.3092 44.8703 23.7106 45.0896 23.1806C45.9037 21.2152 47.4653 19.6538 49.4305 18.8397C50.2775 18.4889 51.1511 18.3529 52.0759 18.2898C52.9643 18.2291 54.0467 18.2291 55.3429 18.2292H55.4905C56.7866 18.2291 57.869 18.2291 58.7574 18.2898C59.6823 18.3529 60.5558 18.4889 61.4028 18.8397C63.3681 19.6538 64.9297 21.2152 65.7437 23.1806C66.0946 24.0275 66.2305 24.9012 66.2935 25.826C66.3542 26.7145 66.3542 27.7967 66.3542 29.093V40.9071C66.3542 42.2033 66.3542 43.2857 66.2935 44.1741C66.2305 45.099 66.0946 45.9725 65.7437 46.8195C64.9297 48.7848 63.3681 50.3463 61.4028 51.1604C60.5558 51.5113 59.6823 51.6472 58.7574 51.7102C57.869 51.7708 56.7866 51.7708 55.4905 51.7708H55.3429C54.0467 51.7708 52.9643 51.7708 52.0759 51.7102C51.1511 51.6472 50.2775 51.5113 49.4305 51.1604C47.4653 50.3463 45.9037 48.7848 45.0896 46.8195C44.8703 46.2893 44.7568 45.6908 44.6866 45.176C44.6119 44.6291 44.5664 44.0207 44.5372 43.3988C44.5098 42.8202 44.4955 42.198 44.4876 41.5625H25.5122C25.5046 42.198 25.4902 42.8202 25.4629 43.3988C25.4336 44.0207 25.388 44.6291 25.3134 45.176C25.2431 45.6908 25.1299 46.2893 24.9103 46.8195C24.0962 48.7848 22.5348 50.3463 20.5695 51.1604C19.7225 51.5113 18.8489 51.6472 17.924 51.7102C17.0355 51.7708 15.9534 51.7708 14.657 51.7708H14.5097C13.2133 51.7708 12.1312 51.7708 11.2427 51.7102C10.3178 51.6472 9.44421 51.5113 8.59724 51.1604C6.6319 50.3463 5.07046 48.7848 4.25639 46.8195C3.90557 45.9725 3.76954 45.099 3.70642 44.1741C3.64582 43.2857 3.64582 42.2033 3.64584 40.9071V29.093C3.64582 27.7967 3.64582 26.7145 3.70642 25.826C3.76954 24.9012 3.90557 24.0275 4.25639 23.1806C5.07046 21.2152 6.6319 19.6538 8.59724 18.8397C9.44421 18.4889 10.3178 18.3529 11.2427 18.2898C12.1312 18.2291 13.2134 18.2291 14.5097 18.2292ZM11.5405 22.6546C10.8384 22.7025 10.4965 22.7885 10.2715 22.8817C9.37814 23.2517 8.6684 23.9615 8.29837 24.8548C8.20515 25.0798 8.11919 25.4217 8.07127 26.1238C8.02204 26.8456 8.02084 27.7778 8.02084 29.1667V40.8333C8.02084 42.2223 8.02204 43.1544 8.07127 43.8763C8.11919 44.5783 8.20515 44.9202 8.29837 45.1453C8.6684 46.0384 9.37814 46.7483 10.2715 47.1185C10.4965 47.2115 10.8384 47.2975 11.5405 47.3454C12.2623 47.3947 13.1944 47.3958 14.5833 47.3958C15.9723 47.3958 16.9044 47.3947 17.6262 47.3454C18.3283 47.2975 18.6702 47.2115 18.8952 47.1185C19.7885 46.7483 20.4983 46.0384 20.8683 45.1453C20.8676 45.1468 20.8684 45.1453 20.8683 45.1453C20.8682 45.145 20.882 45.1077 20.9039 45.0123C20.9279 44.9076 20.9537 44.7665 20.9786 44.5839C21.0289 44.2158 21.0666 43.7491 21.0928 43.1929C21.1453 42.0767 21.1458 40.7485 21.1458 39.375C21.1458 38.1669 22.1252 37.1875 23.3333 37.1875H46.6667C47.8748 37.1875 48.8542 38.1669 48.8542 39.375C48.8542 40.7485 48.8548 42.0767 48.9073 43.1929C48.9335 43.7491 48.9711 44.2158 49.0213 44.5839C49.0464 44.7665 49.072 44.9076 49.096 45.0123C49.1181 45.1077 49.133 45.1477 49.1327 45.1477C49.5028 46.041 50.2116 46.7483 51.1047 47.1185C51.3298 47.2115 51.6717 47.2975 52.3737 47.3454C53.0956 47.3947 54.0278 47.3958 55.4167 47.3958C56.8056 47.3958 57.7378 47.3947 58.4596 47.3454C59.1617 47.2975 59.5035 47.2115 59.7287 47.1185C60.6218 46.7483 61.3317 46.0384 61.7018 45.1453C61.7948 44.9202 61.8809 44.5783 61.9287 43.8763C61.978 43.1544 61.9792 42.2223 61.9792 40.8333V29.1667C61.9792 27.7778 61.978 26.8456 61.9287 26.1238C61.8809 25.4217 61.7948 25.0798 61.7018 24.8548C61.3317 23.9615 60.6218 23.2517 59.7287 22.8817C59.5035 22.7885 59.1617 22.7025 58.4596 22.6546C57.7378 22.6054 56.8056 22.6042 55.4167 22.6042C54.0278 22.6042 53.0956 22.6054 52.3737 22.6546C51.6717 22.7025 51.3298 22.7885 51.1047 22.8817C50.2116 23.2517 49.5017 23.9615 49.1318 24.8548C49.1315 24.8548 49.1324 24.8531 49.1318 24.8548C49.1318 24.8548 49.1181 24.8923 49.096 24.9878C49.072 25.0923 49.0464 25.2335 49.0213 25.416C48.9711 25.7841 48.9335 26.2508 48.9073 26.8071C48.8548 27.9233 48.8542 29.2515 48.8542 30.625C48.8542 31.8331 47.8748 32.8125 46.6667 32.8125H23.3333C22.1252 32.8125 21.1458 31.8331 21.1458 30.625C21.1458 29.2515 21.1453 27.9233 21.0928 26.8071C21.0666 26.2508 21.0289 25.7841 20.9786 25.416C20.9537 25.2335 20.9279 25.0923 20.9039 24.9878C20.882 24.8923 20.8671 24.8523 20.8673 24.8523C20.4972 23.9589 19.7885 23.2517 18.8952 22.8817C18.6702 22.7885 18.3283 22.7025 17.6262 22.6546C16.9044 22.6054 15.9723 22.6042 14.5833 22.6042C13.1944 22.6042 12.2623 22.6054 11.5405 22.6546Z" fill="white"/>
</svg>
